<svg width="72" height="72" viewBox="0 0 72 72" fill="none" xmlns="http://www.w3.org/2000/svg">
<path fill-rule="evenodd" clip-rule="evenodd" d="M3.5 60.6513L34.4253 60.2988L32.994 53.8105C32.6224 45.1417 38.2911 37.6389 46.208 35L47.4894 31.0685V13.3141C47.4894 13.0417 47.2656 12.8209 46.9894 12.8209H38.4921V14.7929C38.4921 16.6995 36.9251 18.245 34.9921 18.245H14.9974C13.0644 18.245 11.4974 16.6995 11.4974 14.7929V12.8209H3.5C3.2239 12.8209 3 13.0417 3 13.3141V60.1582C3 60.4305 3.2239 60.6513 3.5 60.6513ZM7.4983 26.1344C7.4983 25.3174 8.16989 24.655 8.99829 24.655H33.5V27.6139H8.99829C8.16989 27.6139 7.4983 26.9516 7.4983 26.1344ZM42.4912 26.1344C42.4912 26.9516 41.8196 27.6139 40.9912 27.6139H36.5V24.655H40.9912C41.8196 24.655 42.4912 25.3174 42.4912 26.1344ZM7.4983 35.5034C7.4983 34.6863 8.16989 34.024 8.99829 34.024H32.4931C33.3215 34.024 33.9931 34.6863 33.9931 35.5034C33.9931 36.3205 33.3215 36.9829 32.4931 36.9829H8.99829C8.16989 36.9829 7.4983 36.3205 7.4983 35.5034ZM7.4983 44.3791C7.4983 43.5621 8.16989 42.8997 8.99829 42.8997H25.9946C26.823 42.8997 27.4946 43.5621 27.4946 44.3791C27.4946 45.1963 26.823 45.8586 25.9946 45.8586H8.99829C8.16989 45.8586 7.4983 45.1963 7.4983 44.3791Z" fill="#F4CC7E"/>
<path d="M29.9933 9.36917V7.88972V3.45206C29.9933 3.17974 29.7695 2.9589 29.4933 2.9589H20.4962C20.2201 2.9589 19.9962 3.17974 19.9962 3.45206V7.88972V9.36917H18.4962H14.9974C14.7213 9.36917 14.4974 9.59001 14.4974 9.86233V14.7929C14.4974 15.0653 14.7213 15.2861 14.9974 15.2861H34.9921C35.2682 15.2861 35.4921 15.0653 35.4921 14.7929V9.86233C35.4921 9.59001 35.2682 9.36917 34.9921 9.36917H31.4933H29.9933Z" fill="#F4CC7E"/>
<path fill-rule="evenodd" clip-rule="evenodd" d="M52.0304 36.9823C42.8997 37.2324 35.6078 44.739 35.9913 53.6856C36.3594 62.2704 43.268 68.7947 52.0304 69.0346C61.0447 69.2813 68.6077 62.5179 68.986 53.6856C69.3793 44.5035 61.4009 36.7255 52.0304 36.9823ZM44.1108 49.6031C44.7779 49.1187 45.7169 49.2595 46.208 49.9175L51.9613 57.6259L57.4421 49.9432L59.8956 51.6459L53.2155 61.0097L52.0163 62.6908L50.7808 61.0354L43.792 51.6716C43.3009 51.0136 43.4436 50.0875 44.1108 49.6031ZM62.3498 45.6347C63.0273 46.1049 63.1901 47.0277 62.7134 47.696L60.951 50.1665L58.4975 48.4637L60.2599 45.9933C60.7366 45.3251 61.6723 45.1645 62.3498 45.6347Z" fill="#F4CC7E"/>
<path fill-rule="evenodd" clip-rule="evenodd" d="M29.9933 7.88972V9.36917H31.4933H34.9921C35.2682 9.36917 35.4921 9.59001 35.4921 9.86233L36.9921 9.86203L38.4921 9.86233V12.8209H46.9894C47.2656 12.8209 47.4894 13.0417 47.4894 13.3141V31.0685H50.4894V13.3141C50.4894 11.4076 48.9224 9.86203 46.9894 9.86203L38.4921 9.86233C38.4921 7.9558 36.9251 6.41027 34.9921 6.41027H32.9933V3.45206C32.9933 1.54553 31.4263 0 29.4933 0H20.4962C18.5632 0 16.9962 1.54553 16.9962 3.45206V6.41027H14.9974C13.0644 6.41027 11.4974 7.9558 11.4974 9.86233L3.5 9.86203C1.567 9.86203 0 11.4076 0 13.3141V60.1582C0 62.0647 1.567 63.6102 3.5 63.6102L35.9913 63.2644C39.3527 68.435 45.2105 71.808 51.9472 71.9923C62.5445 72.2824 71.5333 64.3138 71.9832 53.8105C72.4524 42.858 62.9987 33.7217 51.9471 34.0244C49.9467 34.0793 48.0185 34.3965 46.208 35C38.2911 37.6389 32.6224 45.1417 32.994 53.8105C33.093 56.1199 33.5924 58.3019 34.4253 60.2988L3.5 60.6513C3.2239 60.6513 3 60.4305 3 60.1582V13.3141C3 13.0417 3.2239 12.8209 3.5 12.8209H11.4974V9.86233L12.9974 9.86203L14.4974 9.86233C14.4974 9.59001 14.7213 9.36917 14.9974 9.36917H18.4962H19.9962V7.88972V3.45206C19.9962 3.17974 20.2201 2.9589 20.4962 2.9589H29.4933C29.7695 2.9589 29.9933 3.17974 29.9933 3.45206V7.88972ZM35.9913 63.2644C35.2796 62.1804 34.9168 61.5285 34.4253 60.2988C34.8597 61.3404 35.3849 62.3316 35.9913 63.2644ZM35.9913 53.6856C35.6078 44.739 42.8997 37.2324 52.0304 36.9823C61.4009 36.7255 69.3793 44.5035 68.986 53.6856C68.6077 62.5179 61.0447 69.2813 52.0304 69.0346C43.268 68.7947 36.3594 62.2704 35.9913 53.6856Z" fill="#F4CC7E"/>
</svg>
