<svg width="29" height="29" viewBox="0 0 29 29" fill="none" xmlns="http://www.w3.org/2000/svg">
<circle cx="14.5" cy="14.5" r="14.5" fill="#0B1C56"/>
<path d="M13.036 11.16L10.7807 8.55665C10.5207 8.25665 10.044 8.25798 9.74204 8.56065L7.88738 10.4186C7.33538 10.9713 7.17738 11.792 7.49671 12.45C9.40446 16.4 12.5901 19.59 16.5374 21.5033C17.1947 21.8226 18.0147 21.6646 18.5667 21.112L20.4387 19.2366C20.742 18.9333 20.7427 18.454 20.44 18.194L17.8267 15.9506C17.5534 15.716 17.1287 15.7466 16.8547 16.0213L15.9454 16.932C15.8988 16.9808 15.8375 17.0129 15.7709 17.0235C15.7043 17.0341 15.6361 17.0226 15.5767 16.9906C14.0903 16.1347 12.8574 14.9001 12.0034 13.4126C11.9714 13.3531 11.9598 13.2848 11.9704 13.2181C11.981 13.1514 12.0132 13.09 12.062 13.0433L12.9687 12.136C13.2434 11.86 13.2734 11.4333 13.036 11.1593V11.16Z" stroke="white" stroke-width="2" stroke-linecap="round" stroke-linejoin="round"/>
</svg>
